<svg xmlns="http://www.w3.org/2000/svg" viewBox="0 0 96 96" role="img" aria-labelledby="zove-mark-title">
  <title id="zove-mark-title">ZOVE</title>
  <defs>
    <linearGradient id="zove-bg" x1="12" y1="10" x2="86" y2="88" gradientUnits="userSpaceOnUse">
      <stop stop-color="#12151b"/>
      <stop offset="0.38" stop-color="#2f63ff"/>
      <stop offset="0.7" stop-color="#02a7a0"/>
      <stop offset="1" stop-color="#ff5c7a"/>
    </linearGradient>
    <linearGradient id="zove-stroke" x1="24" y1="24" x2="72" y2="72" gradientUnits="userSpaceOnUse">
      <stop stop-color="#ffffff"/>
      <stop offset="1" stop-color="#d9fff8"/>
    </linearGradient>
  </defs>
  <rect width="96" height="96" rx="26" fill="url(#zove-bg)"/>
  <path d="M22 30c7-8 17-12 29-12 12 0 23 5 31 13" fill="none" stroke="rgba(255,255,255,.38)" stroke-linecap="round" stroke-width="5"/>
  <path d="M74 66c-7 8-17 12-29 12-12 0-23-5-31-13" fill="none" stroke="rgba(255,255,255,.3)" stroke-linecap="round" stroke-width="5"/>
  <path d="M28 28h40c2.1 0 3.2 2.5 1.9 4.1L42.4 64H68c2.4 0 4.3 1.9 4.3 4.3s-1.9 4.3-4.3 4.3H28c-2.1 0-3.2-2.5-1.9-4.1L53.6 36.6H28c-2.4 0-4.3-1.9-4.3-4.3S25.6 28 28 28Z" fill="#ffffff"/>
  <path d="M21 52h12l5-9 8 20 8-29 6 18h15" fill="none" stroke="url(#zove-stroke)" stroke-linecap="round" stroke-linejoin="round" stroke-width="5"/>
  <path d="M58 43.5 71 51l-13 7.5v-15Z" fill="#12151b" opacity=".78"/>
</svg>
