<svg xmlns="http://www.w3.org/2000/svg" viewBox="0 0 96 96" role="img" aria-labelledby="zove-title">
  <title id="zove-title">ZOVE</title>
  <defs>
    <linearGradient id="zove-prism-bg" x1="14" y1="10" x2="84" y2="88" gradientUnits="userSpaceOnUse">
      <stop stop-color="#101827"/>
      <stop offset="0.35" stop-color="#2563eb"/>
      <stop offset="0.68" stop-color="#00a7a0"/>
      <stop offset="1" stop-color="#ff4f79"/>
    </linearGradient>
    <linearGradient id="zove-prism-core" x1="24" y1="23" x2="72" y2="73" gradientUnits="userSpaceOnUse">
      <stop stop-color="#ffffff"/>
      <stop offset="0.54" stop-color="#ecfeff"/>
      <stop offset="1" stop-color="#dbeafe"/>
    </linearGradient>
    <radialGradient id="zove-prism-glow" cx="31" cy="24" r="58" gradientUnits="userSpaceOnUse">
      <stop stop-color="#ffffff" stop-opacity="0.42"/>
      <stop offset="0.55" stop-color="#ffffff" stop-opacity="0.1"/>
      <stop offset="1" stop-color="#ffffff" stop-opacity="0"/>
    </radialGradient>
  </defs>
  <rect width="96" height="96" rx="24" fill="url(#zove-prism-bg)"/>
  <rect x="9" y="9" width="78" height="78" rx="21" fill="url(#zove-prism-glow)"/>
  <path d="M24 28h48c2.3 0 3.6 2.7 2.1 4.5L42.5 68H70c2.8 0 5 2.2 5 5s-2.2 5-5 5H24c-2.3 0-3.6-2.7-2.1-4.5L53.5 38H24c-2.8 0-5-2.2-5-5s2.2-5 5-5Z" fill="url(#zove-prism-core)"/>
  <path d="M35 47 49 31l12 14-16 20-13-14c-1.1-1.2-0.9-3 0.3-4Z" fill="#101827" opacity="0.9"/>
  <path d="M40 49h15l-7 9 18-15H51l7-9-18 15Z" fill="#67e8f9"/>
  <circle cx="22" cy="22" r="5" fill="#ffffff" opacity="0.78"/>
  <circle cx="76" cy="69" r="7" fill="#ffffff" opacity="0.18"/>
</svg>
